<?xml version="1.0" encoding="utf-8"?>
<!-- Generator: Adobe Illustrator 18.0.0, SVG Export Plug-In . SVG Version: 6.00 Build 0)  -->
<!DOCTYPE svg PUBLIC "-//W3C//DTD SVG 1.1//EN" "http://www.w3.org/Graphics/SVG/1.1/DTD/svg11.dtd">
<svg version="1.1" id="Layer_1" xmlns="http://www.w3.org/2000/svg" xmlns:xlink="http://www.w3.org/1999/xlink" x="0px" y="0px"
	 viewBox="0 0 612 792" enable-background="new 0 0 612 792" xml:space="preserve">
<g id="logo">
	<g id="obruc_x5F_a_x5F_text">
		<g id="_x32_018">
			<g>
				<path fill="#1C70B7" d="M38.9,363.3v-5.8l-4.1-4.1H21.5l-4.2,4.1v5.2H0v-12.3L14.3,336h27.6l14.3,14.4v21.5l-38.9,28.9v4.4h38.9
					v17.2H0V392L38.9,363.3z"/>
			</g>
			<g>
				<path fill="#1C70B7" d="M123.2,350.3V408L109,422.3H81.3L67,408v-57.8L81.3,336H109L123.2,350.3z M84.3,357.5v43.4l4.1,4.2h13.3
					l4.1-4.2v-43.4l-4.1-4.1H88.5L84.3,357.5z"/>
			</g>
			<g>
				<path fill="#1C70B7" d="M544,422.3h-17.2v-60.8h-7.1v-10.1l0.6-0.2c3.9-1,6.8-2.9,8.9-5.5c2.1-2.7,3.4-5.6,3.9-8.8l0.1-0.9H544
					V422.3L544,422.3z"/>
			</g>
			<path fill="#1C70B7" d="M555,408.2v-23.8l5.4-5.4l-5.4-5.2v-23.6l14.4-14.3h28l14.4,14.3v23.6l-5.4,5.2l5.4,5.4v23.8l-14.4,14.3
				h-28L555,408.2z M590.5,370.4l3.9-3.8v-9.2l-4.1-4.1h-13.6l-4.2,4.1v9.2l3.9,3.8H590.5z M576.7,405.1h13.6l4.1-4.1v-9.3l-3.9-4
				h-14.1l-3.9,4v9.3L576.7,405.1z"/>
		</g>
		<path id="litovel" fill="#1C70B7" d="M250.1,616.8l-18.1-6.2l12.9-37.9l7.2,2.4l-10.5,30.8l10.9,3.7L250.1,616.8z M266.6,579.7
			l7.4,1.9l-9.9,38.8l-7.4-1.9L266.6,579.7z M297.6,593.7l-6.9-1.1l-5.2,32l-7.5-1.2l5.2-32l-7-1.1l1.2-7.5l21.4,3.5L297.6,593.7z
			 M318.1,627.1l-11.3-0.3l-6.1-6.4l0.7-27.5l6.4-6.1l11.3,0.3l6.2,6.4l-0.7,27.5L318.1,627.1z M317.1,617.3l0.6-20.6l-2.1-2.2
			l-4.4-0.1l-2.3,2.1l-0.6,20.5l2.2,2.3l4.4,0.1L317.1,617.3z M352.5,584.2l-3.9,40.8l-7,0.8l-13.5-38.7l7.7-0.9l7,20l2-21
			L352.5,584.2z M388.6,616l-23,6.3l-10.5-38.7l23-6.3l2,7.3l-15.7,4.3l2.3,8.4l7.3-2l2,7.3l-7.3,2l2.3,8.4l15.7-4.3L388.6,616z
			 M413.8,606.1l-17.7,7.2L381,576.2l7-2.9l12.2,30.1l10.7-4.4L413.8,606.1z"/>
		<path id="obruc" fill="#1C70B7" d="M504.8,289.6c-10.1-23.9-24.6-45.3-42.9-63.7c-18.4-18.4-39.8-32.9-63.6-42.9
			c-24.7-10.4-50.9-15.8-78-15.8s-53.3,5.3-78,15.8c-13.8,5.8-26.9,13.2-38.9,21.9c1-0.6,2-1.1,3.1-1.7c13.8-7.1,30.3-12,48.3-16
			c22.4-5,47.6-7.7,75-8.2c0.8,0,4.8-0.2,11.2,3.2c17.9,2,35.3,6.5,52,13.5c22.2,9.4,42.2,22.9,59.3,40c17.2,17.2,30.6,37.1,40,59.3
			c9.7,23,14.7,47.4,14.7,72.6c0,25.2-4.9,49.6-14.7,72.6c-9.4,22.2-22.9,42.2-40,59.3c-17.2,17.2-37.1,30.6-59.3,40
			c-23,9.7-47.4,14.7-72.6,14.7c-25.2,0-49.6-4.9-72.6-14.7c-22.2-9.4-42.2-22.9-59.3-40s-30.6-37.1-40-59.3
			c-9.7-23-14.7-47.4-14.7-72.6c0-25.2,4.9-49.6,14.7-72.6c2.9-6.9,6.3-13.6,9.9-20c-0.2,0.1-0.5,0.2-0.7,0.4
			c-11.5,6.4-21,14.2-25.8,24.1c-7.9,21.8-11.9,44.7-11.9,68.2c0,27,5.3,53.3,15.7,78c10.1,23.9,24.6,45.3,42.9,63.7
			s39.8,32.8,63.7,42.9c24.7,10.4,50.9,15.7,78,15.7s53.2-5.3,78-15.8c23.9-10.1,45.3-24.6,63.7-42.9c18.4-18.4,32.8-39.8,42.9-63.7
			c10.4-24.7,15.7-50.9,15.7-78S515.3,314.2,504.8,289.6z"/>
	</g>
	<g id="mic">
		<path fill="#1C70B7" d="M461.3,428.6c-2.1-1.8-10.1-8.4-18.7-14v30.1l-21,23.6l-19.3,2.7v36.3l-40.8,5.6v-11.2L350,514.4
			l-36.9,5.1l-17.3-14.6l-17.5,19.4l-18.2,2.5l0,0l5-0.7c6.2,4.3,13.7,6.9,22.4,7.9c8.6,0.9,18.3,1.4,28.7,1.4
			c16.1,0,28.8-1.1,30.1-1.3c9-1.7,23.7-5,27.1-6.5l8-10.6c-0.1,0-0.2-0.1-0.3-0.1c-3.9-1.7-7.4-3.5-10.6-5.3l7.9-1.1
			c3.4,1.7,5.9,2.9,7,3.3c3.7-0.5,30.4-4.7,54.5-33l0.1-0.1C440.5,480.4,466.5,452.6,461.3,428.6z"/>
		<path fill="#1C70B7" d="M463.4,424.3c18.1-15,21.7-42.9,21.7-43.2c1.8-18.2-3.5-33.8-8.3-43.7c-5.3-11-11-17.3-13.2-18.7
			c-2.7,2.2-9.8,6.3-17,10.3c-3.7,2.1-8.9,5.1-12.9,7.1v50.3l-1.5,9.9l10.3,8.6v4C452.2,414.7,460.3,421.5,463.4,424.3z"/>
		<path fill="#1C70B7" d="M219.4,410.1v-82.6c-3.9,3.2-7.4,6.8-10.4,10.6c-1.4,5.7-9.2,39.6,1,63.2
			C211,402.4,214.2,405.8,219.4,410.1z"/>
		<path fill="#1C70B7" d="M213,493.3c1.6,1.3,3.4,2.6,5.3,4v-63.5l10.6-11.9l-1.2,1.4c-9.1-5.3-17.7-11.6-22.6-18.3l-28.5,18.6
			c-0.4,1.7-1.2,6.5,0.1,13.8c1.5,8.6,6.2,22.8,20.1,40.7C197.2,478.5,203.4,485.8,213,493.3z"/>
		<path fill="#1C70B7" d="M174.8,419.2l23.5-15.4l4.5-2.9c-2.3-6-8.1-26.3-0.6-63.8c-2.6-1.7-8.6-5.8-14.6-10.6
			c-5-3.8-9.7-7.7-12.1-10.5c-1.8,1.5-5.1,4.6-8.4,9.6c-8.6,13.2-11.4,29.8-12.3,41.4l0,0.6C154.8,371.5,155.6,402.3,174.8,419.2z"
			/>
		<path fill="#1C70B7" d="M271.5,259.1c-2,0-3.9,0-5.7,0c-7.5,7.1-19.8,17.8-23.9,17.8c-0.1,0-0.3,0-0.4,0
			c-3.4-0.5-22-6.9-23.2-13.4c-0.2-1,0-2.3,1.2-3.6c-7,0.4-14.7,1.2-22.6,2.5c-0.6,0.1-1.2,0.2-1.8,0.3
			c-10.6,15.4-14.8,27.4-16.4,35c-1.6,7.8-0.9,12.6-0.6,14c2.9,3.4,7.5,7.3,12.2,10.9c4,3,8.7,6.5,14.2,10.3
			c4.8-4.9,9.8-9.2,14.9-13v-23.5l40.2-5.5c2.7-12.2,8-23.4,12.9-31.9C272.2,259.1,271.8,259.1,271.5,259.1z"/>
		<path fill="#1C70B7" d="M443.6,262.9l-0.2-0.2l-0.1-0.3c-2.6-4.5-8.8-10.5-16.3-16.2c0,0.1-0.1,0.2-0.1,0.3
			c0.5,0.6,1.1,1.4,1.4,2.5c0.7,1.9,0.8,4,0.2,6.3c-0.2,0.8-0.6,1.7-0.9,2.6l-0.1,0.2l-0.1,0.1c-0.1,0.1-1.7,2.3-4.1,3.7
			c-0.6,0.4-1.2,0.6-1.9,0.9c-0.8,0.3-3.1,0.8-6,1.5c-7.4,1.6-32.1,6.7-41.2,3.9c-1.8-0.2-4-0.5-6.3-0.7c0.9,2.6,1.8,5.3,2.7,8.2
			l-4.6,0.6c-0.9-3.1-2-6.3-3.2-9.4c-9.4-1-19.6-1.9-22.3-1.8c-3.1,0.1-40.8-0.8-46.3-4.6c-0.2-0.1-2.4-1.3-16.1-1.6
			c-4.9,8.1-10.5,19.2-13.4,31.2L433.8,267v63.8c4.1-2.2,8.1-4.4,11.8-6.5c6.9-4,13.4-7.9,15.3-9.2
			C467.9,287.6,443.8,263.2,443.6,262.9z"/>
	</g>
	<g id="minicup_x5F_text">
		<polygon fill="#1C70B7" points="341.3,480.8 335.9,486.8 325.1,488.3 319.7,483.8 319.7,410.3 301,412.9 301,494.8 316.5,507.9 
			344.5,504 360,486.7 360,404.8 341.3,407.4 		"/>
		<polygon fill="#1C70B7" points="351.6,338.8 373.1,383.6 391.5,381.1 391.5,283.9 372.7,286.6 372.7,334.1 351.3,289.5 332.9,292 
			332.9,389.1 351.6,386.6 		"/>
		<polygon fill="#1C70B7" points="320.3,293.8 301.6,296.4 301.6,393.5 320.3,390.9 		"/>
		<polygon fill="#1C70B7" points="244.8,420.6 229.4,438 229.4,504.7 241.1,514.6 245.9,517.6 272.8,513.9 288.5,496.5 288.5,481.1 
			269.7,483.7 269.7,490.7 264.2,496.7 253.5,498.2 248.1,493.6 248.1,443.9 253.5,437.8 264.2,436.4 269.7,440.9 269.7,447.9 
			288.5,445.3 288.5,429.8 272.8,416.8 		"/>
		<polygon fill="#1C70B7" points="259.7,332.6 249.2,303.6 230.5,306.2 230.5,403.3 249.2,400.7 249.2,361 259.7,390 270.4,358 
			270.4,397.7 289.1,395.2 289.1,298.1 270.4,300.6 		"/>
		<polygon fill="#1C70B7" points="422.7,279.7 404,282.2 404,379.4 422.7,376.7 		"/>
		<path fill="#1C70B7" d="M416,397.1l-43.5,6v97.1l18.8-2.6v-36.3l24.7-3.4l15.5-17.5v-30.3L416,397.1z M412.9,434.6l-5.5,6
			l-16.1,2.2v-24l16.1-2.2l5.5,4.4V434.6z"/>
	</g>
	<g id="ryba">
		<path id="ploutev" fill="#1C70B7" d="M257.1,264.6c2.1-1.8,4.1-3.7,6-5.4l3.9-3.8c1.7-1.7,2.9-2.9,3.1-3.4
			c0.1-0.2,0.1-0.3,0.1-0.3c-0.3-0.7-2.1-1.5-5.4-2.3c-0.3-0.1-0.6-0.1-0.7-0.2c-0.1,0-0.5,0-0.9,0c-1.6,0-3.4,0.3-3.5,1.2
			c-0.2,1.7-6.3,2.7-14.8,3.8c-11.6,1.4-22.4,5.9-22.4,5.9c-3.4,1.7-2.3,2.6-2.2,3c0.3,1.4,2,3.2,4.9,5l8.5,4.1l8.3,2.8l1.1-0.2
			C244.5,274.3,248.4,272.1,257.1,264.6z"/>
		<path fill="#1C70B7" d="M424.7,250.4c-0.3-0.7-0.7-1.3-1-1.7c-2.9,0.8-8.6,1.3-16,2c-4.2,0.4-8.2,0.7-9.6,1.1h0
			c-0.7,0.1-9.2,1.7-19.3,1.7c-10.9,0-23.7-1.8-31.1-9.4c-0.7-0.7-0.7-1.9,0-2.6c0.7-0.7,1.9-0.7,2.6,0c12.8,13,46,6.8,47,6.6
			c1.7-0.4,5.6-0.7,10.1-1.1c5.9-0.6,14.1-1.3,16-2.1c0.2-0.3,0.3-2.2-1.1-5.7c-1.2-3-2.9-5.7-3.9-6.6c-1.7-1.6-8.6-4.6-12.4-6.2
			c-1.5-0.6-10.1-3.6-17.1-7.1c3.4,2.3,9.5,5.6,19.9,9.1c0.4,0.1,0.6,0.5,0.4,0.9c-0.1,0.3-0.4,0.5-0.6,0.5c-0.1,0-0.1,0-0.2,0
			c-18.3-6.3-23.5-11.5-24.8-13.3c-1.7-1.1-3.1-2.2-3.8-3.1c-0.9-1.2-1.7-2.6-2.5-4.2c-2.7-5-5.4-10.3-13.2-8.6c0,0,0,0-0.1,0
			c-0.2,0-5.8,0.9-10.9-4.3c-13.9-14.4-23.1-13.8-23.2-13.8c0,0-0.1,0-0.2,0c-33.6,0.7-82.1,5.3-121.4,23.9
			c-18.8,8.8-31.6,18.9-34.8,22.7l-0.5,0.5c0,0,0.2-0.3,0.6-0.6c-19.9,20.3-31.5,40.9-41.1,68.6c0.1-0.3,0.3-0.6,0.4-0.8
			c0,0,0-0.1,0.1-0.2c0.1-0.3,0.2-0.6,0.4-0.8c0,0,0-0.1,0.1-0.2c0.1-0.3,0.3-0.5,0.4-0.8c0,0,0-0.1,0.1-0.1
			c0.6-1.1,1.2-2.3,1.9-3.4c0,0,0.1-0.1,0.1-0.2c0.1-0.2,0.3-0.5,0.4-0.7c0-0.1,0.1-0.2,0.2-0.3c0.1-0.2,0.3-0.4,0.4-0.6
			c0-0.1,0.1-0.2,0.2-0.3c0.1-0.2,0.3-0.4,0.4-0.6c0-0.1,0.1-0.2,0.2-0.3c0.1-0.2,0.3-0.4,0.5-0.6l0,0c0.4-0.5,0.7-1,1.1-1.4
			c0.1-0.1,0.1-0.2,0.2-0.3c0.1-0.2,0.3-0.4,0.4-0.6c0.1-0.1,0.2-0.2,0.3-0.4c0.1-0.2,0.3-0.3,0.4-0.5c0.1-0.1,0.2-0.3,0.3-0.4
			c0.1-0.2,0.3-0.3,0.4-0.5c0.1-0.1,0.2-0.3,0.4-0.4s0.3-0.3,0.4-0.5c0.1-0.1,0.3-0.3,0.4-0.4c0.1-0.1,0.3-0.3,0.4-0.4
			c0.3-0.3,0.5-0.6,0.8-0.8c0.1-0.1,0.2-0.2,0.4-0.4c0.2-0.1,0.3-0.3,0.5-0.5c0.1-0.1,0.3-0.2,0.4-0.4c0.2-0.1,0.3-0.3,0.5-0.5
			c0.1-0.1,0.3-0.2,0.4-0.4c0.2-0.1,0.3-0.3,0.5-0.5c0.1-0.1,0.3-0.2,0.4-0.4c0.2-0.1,0.4-0.3,0.6-0.5c0.1-0.1,0.3-0.2,0.4-0.3
			c0.2-0.2,0.5-0.4,0.7-0.6c0.1,0,0.2-0.1,0.2-0.2c0.3-0.2,0.6-0.5,1-0.7c0.1-0.1,0.2-0.1,0.3-0.2c0.2-0.2,0.5-0.3,0.7-0.5
			c0.1-0.1,0.3-0.2,0.4-0.3c0.2-0.1,0.5-0.3,0.7-0.5c0.1-0.1,0.3-0.2,0.4-0.3c0.2-0.1,0.5-0.3,0.7-0.5c0.1-0.1,0.3-0.2,0.4-0.3
			c0.3-0.1,0.5-0.3,0.8-0.5c0.1-0.1,0.2-0.1,0.4-0.2c0.4-0.2,0.8-0.5,1.2-0.7c10.9-6,24.5-10.4,40.6-13.2
			c11.4-1.9,22.4-2.7,31.5-2.9c6.3-2,14-3,20-3.9c4.2-0.6,9-1.3,9.9-1.9c0.2-1.1,1.2-2.6,5.3-2.6c0.7,0,1.2,0,1.2,0l0.2,0
			c0.1,0,0.4,0.1,0.7,0.2c2.9,0.7,6,1.6,6.7,3.4c0.2,0.5,0.3,1.1-0.2,2c-0.2,0.3-1,1.1-2.1,2.3c0.5,0,1,0,1.5,0
			c6.2,0,10.9,0.1,14.3,0.3c-0.5-0.2-1.1-0.5-1.6-0.8c-1.5-0.7-3.1-1.7-4.8-2.9c-1.7-1.2-3.5-2.6-5.2-4.4c-1.7-1.7-3.4-3.8-4.8-6.1
			c-0.7-1.1-1.4-2.4-1.9-3.7c-0.3-0.6-0.6-1.3-0.8-2c-0.2-0.7-0.5-1.4-0.6-2.1c-0.4-1.4-0.6-2.9-0.8-4.4c-0.2-1.5-0.2-3-0.1-4.5
			c0.2-3,0.7-5.9,1.7-8.6c0.5-1.3,1-2.7,1.6-3.9c0.3-0.6,0.6-1.2,0.9-1.8s0.6-1.2,1-1.7c1.3-2.3,2.8-4.3,4.3-6.2
			c0.4-0.5,0.7-0.9,1.1-1.3c0.4-0.4,0.7-0.9,1.1-1.2c0.8-0.8,1.5-1.6,2.3-2.3c1.5-1.4,2.9-2.6,4.2-3.6s2.4-1.8,3.4-2.5
			c0.5-0.3,0.9-0.6,1.3-0.9c0.4-0.2,0.7-0.5,1-0.6c0.6-0.3,0.8-0.5,0.8-0.5s-0.2,0.3-0.5,0.8c-0.3,0.6-0.9,1.3-1.5,2.3
			c-0.6,1-1.4,2.1-2.3,3.4c-0.5,0.6-0.9,1.4-1.4,2.1c-0.5,0.7-1,1.5-1.5,2.3c-1.1,1.7-2.1,3.4-3.2,5.3c-1.1,1.9-2.1,3.9-3,6
			c-0.2,0.5-0.4,1.1-0.6,1.6c-0.2,0.6-0.4,1.1-0.6,1.6c-0.2,0.6-0.4,1.1-0.6,1.7c-0.2,0.6-0.3,1.1-0.5,1.7c-0.6,2.3-1,4.6-1.1,6.8
			c0,1.1,0,2.3,0,3.4c0,0.6,0.1,1.1,0.2,1.7c0.1,0.6,0.1,1.1,0.3,1.7c0.5,2.2,1.1,4.3,2.1,6.3c0.9,2,2,3.9,3.2,5.6
			c1.2,1.7,2.4,3.3,3.7,4.7c2.5,2.9,4.9,5.1,6.6,6.6c0.3,0.2,0.6,0.5,0.8,0.7c5.1,0.6,6.3,1.3,6.8,1.6c2.4,1.7,17.2,2.9,29.1,3.5
			c-0.4-0.1-0.8-0.2-1.2-0.3c-1.1-0.3-2.3-0.6-3.5-1c-2.4-0.8-4.9-1.7-7.4-3c-2.5-1.2-5-2.7-7.4-4.3c-2.4-1.7-4.6-3.7-6.6-5.9
			c-2-2.3-3.7-4.6-5.2-7.1c-0.7-1.2-1.4-2.5-2.1-3.8c-0.3-0.6-0.6-1.3-0.9-1.9c-0.3-0.6-0.6-1.3-0.8-2c-1-2.6-1.7-5.3-1.7-7.9
			c-0.1-2.6,0.2-5.1,0.6-7.3s1.1-4.1,1.8-5.8c0.7-1.7,1.4-3.1,2.1-4.2s1.2-1.9,1.7-2.5c0.4-0.6,0.7-0.8,0.7-0.8l0.3,0.2
			c0,0-0.1,0.3-0.3,1c-0.2,0.6-0.5,1.6-0.9,2.8c-0.7,2.4-1.7,5.8-2.3,9.9c-0.1,1-0.3,2.1-0.4,3.2c-0.1,1.1-0.1,2.3-0.1,3.4
			c0,1.2,0,2.4,0,3.6c0,1.2,0.2,2.5,0.4,3.8c0.4,2.6,1.3,5.2,2.9,7.6c1.5,2.4,3.4,4.5,5.7,6.2c0.6,0.5,1.1,0.8,1.7,1.3
			c0.6,0.4,1.1,0.8,1.7,1.1c1.1,0.8,2.3,1.5,3.5,2.2c2.4,1.4,4.8,2.6,7.2,3.6c2.4,1,4.8,1.9,7.1,2.8c1.1,0.4,2.3,0.8,3.3,1.2
			c1.1,0.4,2.1,0.7,3.1,1.1c1,0.4,2,0.7,2.9,1c0.9,0.3,1.8,0.6,2.6,0.9s1.6,0.5,2.3,0.7c0.6,0.2,1.2,0.4,1.7,0.6c1,0,1.8,0,2.4,0
			c5.1-0.2,33.2,2.9,34.4,3h0.2l0.2,0c0.2,0,0.4,0.1,0.6,0.2c0.2,0,0.4,0.1,0.6,0.1l4.4,0.3l10.7-0.6l0,0c4.6-0.5,9.6-1.3,14.5-2.2
			h0c0.5-0.1,0.9-0.2,1.3-0.2c0,0,0.1,0,0.2,0c0.4-0.1,0.8-0.1,1.2-0.2c0.1,0,0.2,0,0.2,0c0.4-0.1,0.7-0.1,1.1-0.2
			c0.1,0,0.2,0,0.4-0.1c0.3,0,0.6-0.1,1-0.2c0.1,0,0.3,0,0.4-0.1c0.3,0,0.6-0.1,0.8-0.2c0.2,0,0.4-0.1,0.6-0.1
			c0.5-0.1,0.9-0.2,1.3-0.3c3.3-0.7,5.1-1.2,5.6-1.4c0.4-0.1,0.8-0.3,1.1-0.6c1.5-0.9,2.6-2.2,2.9-2.6c0.3-0.6,0.5-1.2,0.6-1.7
			C425.2,253,425.2,251.6,424.7,250.4z M163,263c-2.8,0-5.1-2.3-5.1-5.1s2.3-5.1,5.1-5.1s5.1,2.3,5.1,5.1S165.8,263,163,263z
			 M179.2,232.4c2.8,0,5.1,2.3,5.1,5.1s-2.3,5.1-5.1,5.1s-5.1-2.3-5.1-5.1C174.1,234.7,176.4,232.4,179.2,232.4z M180.2,256.9
			c-2.8,0-5.1-2.3-5.1-5.1s2.3-5.1,5.1-5.1s5.1,2.3,5.1,5.1S183,256.9,180.2,256.9z M196.1,230.2c2.8,0,5.1,2.3,5.1,5.1
			s-2.3,5.1-5.1,5.1s-5.1-2.3-5.1-5.1S193.3,230.2,196.1,230.2z M196.9,253.9c-2.8,0-5.1-2.3-5.1-5.1s2.3-5.1,5.1-5.1
			c2.8,0,5.1,2.3,5.1,5.1C201.9,251.6,199.6,253.9,196.9,253.9z M199.9,225.7c-2.8,0-5.1-2.3-5.1-5.1s2.3-5.1,5.1-5.1
			s5.1,2.3,5.1,5.1S202.6,225.7,199.9,225.7z M214.4,250.5c-2.8,0-5.1-2.3-5.1-5.1s2.3-5.1,5.1-5.1s5.1,2.3,5.1,5.1
			S217.1,250.5,214.4,250.5z M214.4,235c-2.8,0-5.1-2.3-5.1-5.1s2.3-5.1,5.1-5.1s5.1,2.3,5.1,5.1C219.4,232.7,217.1,235,214.4,235z
			 M217.7,218.6c-2.8,0-5.1-2.3-5.1-5.1s2.3-5.1,5.1-5.1s5.1,2.3,5.1,5.1S220.5,218.6,217.7,218.6z M231.4,221.5
			c2.8,0,5.1,2.3,5.1,5.1s-2.3,5.1-5.1,5.1s-5.1-2.3-5.1-5.1S228.6,221.5,231.4,221.5z M232.7,248.6c-2.8,0-5.1-2.3-5.1-5.1
			s2.3-5.1,5.1-5.1s5.1,2.3,5.1,5.1C237.7,246.3,235.5,248.6,232.7,248.6z M236.8,211.8c-2.8,0-5.1-2.3-5.1-5.1s2.3-5.1,5.1-5.1
			c2.8,0,5.1,2.3,5.1,5.1S239.6,211.8,236.8,211.8z M250.7,217.4c2.8,0,5.1,2.3,5.1,5.1c0,2.8-2.3,5.1-5.1,5.1s-5.1-2.3-5.1-5.1
			C245.6,219.7,247.9,217.4,250.7,217.4z M251.1,246.3c-2.8,0-5.1-2.3-5.1-5.1s2.3-5.1,5.1-5.1s5.1,2.3,5.1,5.1
			C256.1,244,253.9,246.3,251.1,246.3z M256.6,208.2c-2.8,0-5.1-2.3-5.1-5.1s2.3-5.1,5.1-5.1c2.8,0,5.1,2.3,5.1,5.1
			S259.4,208.2,256.6,208.2z M341.2,226.2c-0.9,0.2-1.7,0.4-2.6,0.4c-4.8,0-9.3-3.7-10.8-8.9c-0.9-3-0.7-6.2,0.6-8.9
			c1.3-2.8,3.5-4.7,6.2-5.5c0.9-0.2,1.7-0.4,2.6-0.4c4.8,0,9.3,3.7,10.8,8.9c0.1,0.4,0.2,0.8,0.3,1.3c1.5,1.5,4.8,3.9,11.6,5.9
			c1.8,0.5,4.1,1.1,6.8,1.9c12.9,3.5,32.3,8.9,36.5,12.2c0.3,0.2,0.4,0.7,0.1,1c-0.1,0.2-0.3,0.3-0.6,0.3c-0.1,0-0.3,0-0.4-0.1
			c-4-3.1-24-8.6-36-11.9c-2.7-0.7-5-1.4-6.8-1.9c-5.7-1.6-9.1-3.6-11-5.1C348.7,220.3,345.8,224.9,341.2,226.2z"/>
		<path fill="#1C70B7" d="M345.4,212.6c-1.2-4.1-4.6-6.9-8.2-6.9c-0.6,0-1.2,0.1-1.8,0.3c-2,0.6-3.5,2-4.5,4c-1,2.1-1.1,4.6-0.4,6.9
			c1.2,4.1,4.6,6.9,8.2,6.9c0.6,0,1.2-0.1,1.8-0.3C344.5,222.4,346.7,217.4,345.4,212.6z M339.2,218.2c-1.5,0.4-3.1-0.5-3.5-1.9
			c-0.4-1.5,0.5-3.1,1.9-3.5c1.5-0.4,3.1,0.5,3.5,1.9C341.6,216.2,340.7,217.7,339.2,218.2z"/>
	</g>
</g>
</svg>
