<?xml version="1.0" encoding="utf-8"?>
<!-- Generator: Adobe Illustrator 18.0.0, SVG Export Plug-In . SVG Version: 6.00 Build 0)  -->
<!DOCTYPE svg PUBLIC "-//W3C//DTD SVG 1.1//EN" "http://www.w3.org/Graphics/SVG/1.1/DTD/svg11.dtd">
<svg version="1.1" id="unicorn" xmlns="http://www.w3.org/2000/svg" xmlns:xlink="http://www.w3.org/1999/xlink" x="0px" y="0px"
	 viewBox="0 0 1280 720" enable-background="new 0 0 1280 720" xml:space="preserve">
<polygon id="a63" fill="#DFE1E2" points="643.7,260.8 668,282.7 637.6,323.9 "/>
<polygon id="a62" fill="#B8B9B4" points="656.1,289.2 663.4,282.5 637.6,323.9 "/>
<polygon id="a61" fill="#F2F4F3" points="655.4,284.5 643.7,260.8 637.6,323.9 "/>
<polygon id="a60" fill="#EBEDEC" points="640.3,291.3 637.6,323.9 670.8,317.8 "/>
<polygon id="a59" fill="#DDDDDD" points="656.1,289.2 632.7,270.3 668,288.9 "/>
<polygon id="a58" fill="#AA3F90" points="639,278.4 650.1,291.3 658.5,311.6 "/>
<polygon id="a57" fill="#EBEDEC" points="671.6,311.6 641.8,262.1 636,304.3 "/>
<polygon id="a56" fill="#D1D1D1" points="645.8,276.1 658.5,311.6 635.8,295.3 "/>
<polygon id="a55" fill="#90918C" points="637.6,323.9 659.1,294.9 671.6,299.1 "/>
<polygon id="a54" fill="#BCBCBB" points="657.9,325.4 660.6,261.4 645.8,276.1 "/>
<polygon id="a53" fill="#D7D9DA" points="655.4,284.5 643.6,280.3 655.4,307.6 "/>
<polygon id="a52" fill="#EEEDED" points="630.5,276 659.7,286 663.4,320.2 "/>
<polygon id="a51" fill="#DEDEE1" points="679.8,278.4 661.4,317 655.8,301.4 "/>
<polygon id="a50" fill="#E3E3E5" points="668,288.9 643.6,298.8 663.4,301.4 "/>
<polygon id="a49" fill="#DDDEE0" points="659.7,286 648.9,297.6 660.4,307.6 "/>
<polygon id="a48" fill="#C8C7C7" points="645.2,272.6 630,293 668,304.3 "/>
<polygon id="a47" fill="#B7B6B7" points="657.8,276 630,266.8 679.8,281.8 "/>
<polygon id="a46" fill="#C9C9CB" points="652.3,268.7 660.4,303.5 684.7,291.3 "/>
<polygon id="a45" fill="#9D9C9C" points="635.2,281.8 635.2,301 675.7,296 "/>
<polygon id="a44" fill="#EEEDED" points="666.8,291.3 637.9,271.3 637.9,271.3 "/>
<polygon id="a43" fill="#DEDFE1" points="641.8,262.1 625.1,254.4 639,278.4 "/>
<polygon id="a42" fill="#F2F3F5" points="645.8,262.1 637.9,271.3 630.5,276 "/>
<polygon id="a41" fill="#D4D4D6" points="632.7,270.3 632.7,282.5 657.8,280.3 "/>
<polygon id="a40" fill="#DEDEE1" points="639,278.4 639,278.4 666.8,330.3 "/>
<polygon id="a39" fill="#D4D4D6" points="662,273.5 650.1,291.3 639,278.4 "/>
<polygon id="a38" fill="#D30374" points="630,266.8 639,278.4 645.8,268.7 "/>
<polygon id="a37" fill="#A84593" points="643.6,280.3 632.7,270.3 655.4,284.5 "/>
<polygon id="a36" fill="#E72887" points="645.8,268.7 630.5,276 650.1,273.5 "/>
<polygon id="a35" fill="#D30374" points="630.5,276 636.6,275.2 668,282.7 "/>
<polygon id="a34" fill="#AA3F90" points="637.9,271.3 636.6,287.1 662,295 "/>
<polygon id="a33" fill="#E72887" points="653.8,275.2 656.1,289.2 636.6,275.2 "/>
<polygon id="a32" fill="#D4D4D6" points="645.8,262.1 663.4,301.4 650.8,314.4 "/>
<polygon id="a31" fill="#C1C0C8" points="658.9,292 650.8,314.4 668,282.7 "/>
<polygon id="a30" fill="#C1C0C8" points="628.6,293.3 684.7,316.9 659.7,286 "/>
<polygon id="a29" fill="#90908F" points="630,293 671.6,293 636.6,293.8 "/>
<polygon id="a28" fill="#BFC0C1" points="647.1,290 643.6,280.3 671.6,293 "/>
<polygon id="a27" fill="#949492" points="630.5,288.2 662,276.4 658.9,292 "/>
<polygon id="a26" fill="#B3AFB9" points="656.6,298.3 663.4,301.4 662.3,335.6 "/>
<polygon id="a25" fill="#565756" points="645.8,295 647.2,288.9 637.8,315.1 "/>
<polygon id="a24" fill="#BFC0C1" points="640.3,291.3 632.7,282.5 676,301.4 "/>
<polygon id="a23" fill="#D7D9DA" points="616.6,260.9 636.6,293.8 655.4,284.5 "/>
<polygon id="a22" fill="#A1A2A1" points="643.6,287.1 655.4,307.6 666.8,278.4 "/>
<polygon id="a21" fill="#CCCBCB" points="668,282.7 656.1,289.2 652.9,293.8 "/>
<polygon id="a20" fill="#BEBDC2" points="655.4,284.5 655.2,320.2 671.6,311.6 "/>
<polygon id="a19" fill="#BFC0C1" points="646.5,311.6 650.1,304.3 666.8,291.3 "/>
<polygon id="a18" fill="#565756" points="663.4,304.3 643.6,298.8 652.9,298.8 "/>
<polygon id="a17" fill="#D7D9DA" points="648.9,297.6 625.1,272.4 664.9,311.6 "/>
<polygon id="a16" fill="#969591" points="671.6,293 653.8,275.2 676,317 "/>
<polygon id="a15" fill="#CCCBCB" points="645.8,283.1 664.2,315.1 659.7,286 "/>
<polygon id="a14" fill="#B2B2B2" points="629.1,272.9 635.8,295.3 664.7,292 "/>
<polygon id="a13" fill="#565756" points="676,277.4 656.6,298.3 637.9,271.3 "/>
<polygon id="a12" fill="#716F70" points="666.8,278.4 661,290.6 615.3,277.1 "/>
<polygon id="a11" fill="#D8DADB" points="668,282.7 641.8,262.1 646.5,311.6 "/>
<polygon id="a10" fill="#8A8B86" points="648,301.4 645.8,268.7 674,280.3 "/>
<polygon id="a9" fill="#DEDEDE" points="658.9,292 664.7,292 645.8,268.7 "/>
<polygon id="a8" fill="#CBC5C7" points="660.9,294.5 664.2,270.5 641.6,303.7 "/>
<polygon id="a7" fill="#F0F0F2" points="645.8,304.6 645.3,278.8 680.8,299.1 "/>
<polygon id="a6" fill="#908C87" points="666.8,291.3 635.2,295.5 652.9,282.4 "/>
<polygon id="a5" fill="#D30374" points="652.3,268.7 656.6,298.3 655.8,301.4 "/>
<polygon id="a4" fill="#A84593" points="650.1,304.3 656.6,298.3 668,282.7 "/>
<polygon id="a3" fill="#E72887" points="651.4,290.7 642.2,313.3 664.2,315.1 "/>
<polygon id="a2" fill="#D30374" points="632.7,282.5 676,293.4 660.4,303.5 "/>
<polygon id="a1" fill="#A84593" points="647.9,293.7 659.7,286 664.7,292 "/>
</svg>
