<?xml version="1.0" encoding="utf-8"?>
<!-- Generator: Adobe Illustrator 18.0.0, SVG Export Plug-In . SVG Version: 6.00 Build 0)  -->
<!DOCTYPE svg PUBLIC "-//W3C//DTD SVG 1.1//EN" "http://www.w3.org/Graphics/SVG/1.1/DTD/svg11.dtd">
<svg version="1.1" id="unicorn" xmlns="http://www.w3.org/2000/svg" xmlns:xlink="http://www.w3.org/1999/xlink" x="0px" y="0px"
	 viewBox="0 0 1280 720" enable-background="new 0 0 1280 720" xml:space="preserve">
<polygon id="a63" fill="#DFE1E2" points="506.9,114.2 444.4,177.2 500.9,177.2 "/>
<polygon id="a62" fill="#B8B9B4" points="444.4,177.2 465.7,196.6 500.9,177.2 "/>
<polygon id="a61" fill="#F2F4F3" points="562.2,118.2 506.9,114.2 500.9,177.2 "/>
<polygon id="a60" fill="#EBEDEC" points="562.2,118.2 500.9,177.2 534.1,171.2 "/>
<polygon id="a59" fill="#DDDDDD" points="526.8,97.9 506.9,114.2 562.2,118.2 "/>
<polygon id="a58" fill="#AA3F90" points="584.5,124.6 562.2,118.2 589.8,161.2 "/>
<polygon id="a57" fill="#EBEDEC" points="589.8,161.2 562.2,118.2 534.1,171.2 "/>
<polygon id="a56" fill="#D1D1D1" points="589.8,161.2 534.1,171.2 521.8,236.3 "/>
<polygon id="a55" fill="#90918C" points="500.9,177.2 465.7,196.6 478.2,200.8 "/>
<polygon id="a54" fill="#BCBCBB" points="519.1,300.3 521.8,236.3 506.9,251 "/>
<polygon id="a53" fill="#D7D9DA" points="589.8,161.2 521.8,236.3 592.8,269.8 "/>
<polygon id="a52" fill="#EEEDED" points="519.1,300.3 521.8,236.3 592.8,269.8 "/>
<polygon id="a51" fill="#DEDEE1" points="589.8,161.2 592.8,269.8 631.3,226.9 "/>
<polygon id="a50" fill="#E3E3E5" points="631.3,226.9 592.8,269.8 695.3,276.2 "/>
<polygon id="a49" fill="#DDDEE0" points="592.8,269.8 631.3,339.5 695.3,276.2 "/>
<polygon id="a48" fill="#C8C7C7" points="592.8,269.8 519.1,300.3 631.3,339.5 "/>
<polygon id="a47" fill="#B7B6B7" points="519.1,300.3 551.2,338.2 590.8,325.3 "/>
<polygon id="a46" fill="#C9C9CB" points="590.8,325.3 551.2,338.2 590.8,344.5 "/>
<polygon id="a45" fill="#9D9C9C" points="590.8,325.3 590.8,344.5 631.3,339.5 "/>
<polygon id="a44" fill="#EEEDED" points="631.3,339.5 590.8,344.5 645.4,367 "/>
<polygon id="a43" fill="#DEDFE1" points="754.3,287.1 695.3,276.2 631.3,339.5 "/>
<polygon id="a42" fill="#F2F3F5" points="754.3,287.1 631.3,339.5 645.4,367 "/>
<polygon id="a41" fill="#D4D4D6" points="754.3,287.1 645.4,367 793.8,328.4 "/>
<polygon id="a40" fill="#DEDEE1" points="793.8,328.4 645.4,367 695.3,376 "/>
<polygon id="a39" fill="#D4D4D6" points="793.8,328.4 695.3,376 796.9,372.8 "/>
<polygon id="a38" fill="#D30374" points="754.3,287.1 793.8,328.4 807.6,321.7 "/>
<polygon id="a37" fill="#A84593" points="807.6,321.7 793.8,328.4 814.9,344.5 "/>
<polygon id="a36" fill="#E72887" points="807.6,321.7 814.9,344.5 838.2,330.3 "/>
<polygon id="a35" fill="#D30374" points="838.2,330.3 814.9,344.5 816.9,410.9 "/>
<polygon id="a34" fill="#AA3F90" points="838.2,330.3 816.9,410.9 847.4,430.6 "/>
<polygon id="a33" fill="#E72887" points="847.4,430.6 816.9,410.9 855.6,448.6 "/>
<polygon id="a32" fill="#D4D4D6" points="796.9,372.8 695.3,376 751.4,427.3 "/>
<polygon id="a31" fill="#C1C0C8" points="796.9,372.8 751.4,427.3 782.6,420 "/>
<polygon id="a30" fill="#C1C0C8" points="751.4,427.3 807.6,450.9 782.6,420 "/>
<polygon id="a29" fill="#90908F" points="751.4,427.3 790.6,456.7 807.6,450.9 "/>
<polygon id="a28" fill="#BFC0C1" points="807.6,450.9 790.6,456.7 785.4,488.3 "/>
<polygon id="a27" fill="#949492" points="803.2,512.7 807.6,450.9 785.4,488.3 "/>
<polygon id="a26" fill="#B3AFB9" points="803.2,512.7 785.4,488.3 758.5,545.9 "/>
<polygon id="a25" fill="#565756" points="758.5,545.9 794.7,519 785.4,545.1 "/>
<polygon id="a24" fill="#BFC0C1" points="695.3,376 692.8,404.2 747.8,424 "/>
<polygon id="a23" fill="#D7D9DA" points="692.8,404.2 728.3,465.2 747.8,424 "/>
<polygon id="a22" fill="#A1A2A1" points="747.8,424 728.3,465.2 750.1,468.7 "/>
<polygon id="a21" fill="#CCCBCB" points="750.1,468.7 728.3,465.2 716.4,506.6 "/>
<polygon id="a20" fill="#BEBDC2" points="728.3,465.2 696.5,494.8 716.4,506.6 "/>
<polygon id="a19" fill="#BFC0C1" points="696.5,494.8 675,544.3 716.4,506.6 "/>
<polygon id="a18" fill="#565756" points="706.7,516.8 674.4,543.5 698.2,542.5 "/>
<polygon id="a17" fill="#D7D9DA" points="551.2,338.2 538.1,322.7 458.8,360.1 "/>
<polygon id="a16" fill="#969591" points="551.2,338.2 458.8,360.1 483.1,381.3 "/>
<polygon id="a15" fill="#CCCBCB" points="507.4,365.9 483.1,381.3 522.4,415.7 "/>
<polygon id="a14" fill="#B2B2B2" points="515.6,393.3 522.4,415.7 551.2,412.3 "/>
<polygon id="a13" fill="#565756" points="535.7,388.6 551.2,412.3 524.2,397.9 "/>
<polygon id="a12" fill="#716F70" points="538.1,322.7 516.6,332.8 471,319.2 "/>
<polygon id="a11" fill="#D8DADB" points="519.1,300.3 471.7,296.6 538.1,322.7 "/>
<polygon id="a10" fill="#8A8B86" points="471,319.2 471.7,296.6 538.1,322.7 "/>
<polygon id="a9" fill="#DEDEDE" points="464.7,357.3 471,319.2 487.3,324.1 "/>
<polygon id="a8" fill="#CBC5C7" points="484.1,348.1 487.3,324.1 464.7,357.3 "/>
<polygon id="a7" fill="#F0F0F2" points="557.3,76.5 526.8,97.9 562.2,118.2 "/>
<polygon id="a6" fill="#908C87" points="529,73.7 521.6,102.1 539.4,89.1 "/>
<polygon id="a5" fill="#D30374" points="560.6,104.5 562.2,118.2 584.5,124.6 "/>
<polygon id="a4" fill="#A84593" points="589.8,161.2 584.5,124.6 599,138.7 "/>
<polygon id="a3" fill="#E72887" points="599,138.7 589.8,161.2 611.7,163.1 "/>
<polygon id="a2" fill="#D30374" points="589.8,161.2 611.7,163.1 631.3,226.9 "/>
<polygon id="a1" fill="#A84593" points="444.4,44.1 503.9,117.3 518,105.1 "/>
</svg>
