<?xml version="1.0" encoding="utf-8"?>
<!-- Generator: Adobe Illustrator 18.0.0, SVG Export Plug-In . SVG Version: 6.00 Build 0)  -->
<!DOCTYPE svg PUBLIC "-//W3C//DTD SVG 1.1//EN" "http://www.w3.org/Graphics/SVG/1.1/DTD/svg11.dtd">
<svg version="1.1" id="unicorn" xmlns="http://www.w3.org/2000/svg" xmlns:xlink="http://www.w3.org/1999/xlink" x="0px" y="0px"
	 viewBox="0 0 1280 720" enable-background="new 0 0 1280 720" xml:space="preserve">
<polygon id="a63" fill="#DFE1E2" points="394.4,76 387,124.6 338.7,124.6 "/>
<polygon id="a62" fill="#B8B9B4" points="319,147.7 326,177.2 364.9,139.7 "/>
<polygon id="a61" fill="#F2F4F3" points="562.2,0 534.1,-7.7 545.7,-50.3 "/>
<polygon id="a60" fill="#EBEDEC" points="347.5,239 293.7,236.3 315.7,291.7 "/>
<polygon id="a59" fill="#DDDDDD" points="452.3,97 419,70 427,138.7 "/>
<polygon id="a58" fill="#AA3F90" points="571,7.8 576,-53 607.7,-50.3 "/>
<polygon id="a57" fill="#EBEDEC" points="581,19 545,19 527,47 "/>
<polygon id="a56" fill="#D1D1D1" points="509.5,70 446.5,65.3 471.7,110 "/>
<polygon id="a55" fill="#90918C" points="376,163.1 319,198.8 349,217.7 "/>
<polygon id="a54" fill="#BCBCBB" points="297,339.5 350.3,325.3 293.7,304.7 "/>
<polygon id="a53" fill="#D7D9DA" points="402.3,130.3 387.7,177.2 419,158.5 "/>
<polygon id="a52" fill="#EEEDED" points="335.4,300.3 353.7,251.5 381.5,236.3 "/>
<polygon id="a51" fill="#DEDEE1" points="671.7,-53 670.2,-20.5 705.7,-65 "/>
<polygon id="a50" fill="#E3E3E5" points="723.7,-47 711.7,19 765.7,-25.2 "/>
<polygon id="a49" fill="#DDDEE0" points="746.1,22.3 789.7,-36 789.7,13.1 "/>
<polygon id="a48" fill="#C8C7C7" points="368.9,300.3 341.9,344.5 372.3,372.8 "/>
<polygon id="a47" fill="#B7B6B7" points="389.7,454.3 389.7,487.7 423.9,465.2 "/>
<polygon id="a46" fill="#C9C9CB" points="400.6,203.9 361.1,216.7 400.9,236.3 "/>
<polygon id="a45" fill="#9D9C9C" points="516,513 489,545.3 529.5,540.2 "/>
<polygon id="a44" fill="#EEEDED" points="858,112.5 876.5,107.5 853.7,83 "/>
<polygon id="a43" fill="#DEDFE1" points="832.3,0 804.3,-11 832.3,60.3 "/>
<polygon id="a42" fill="#F2F3F5" points="705.7,624.8 675.2,573.8 719,573.8 "/>
<polygon id="a41" fill="#D4D4D6" points="853.7,0 861.7,80.3 906.3,70 "/>
<polygon id="a40" fill="#DEDEE1" points="933.4,110.3 911.1,139 987.9,130.6 "/>
<polygon id="a39" fill="#D4D4D6" points="989,210.3 922.2,151 986,163.1 "/>
<polygon id="a38" fill="#D30374" points="981,248 958.9,295 997,276.2 "/>
<polygon id="a37" fill="#A84593" points="1023.6,388.6 1002,412.3 1055.4,417.6 "/>
<polygon id="a36" fill="#E72887" points="967.1,344.5 942,381.3 1030,360.1 "/>
<polygon id="a35" fill="#D30374" points="926,442 991.8,393.3 981,434.7 "/>
<polygon id="a34" fill="#AA3F90" points="1023.6,296.6 952,309.6 1045.7,319.6 "/>
<polygon id="a33" fill="#E72887" points="1023.6,437.7 991.8,446.4 991.8,499.8 "/>
<polygon id="a32" fill="#D4D4D6" points="997,217.7 931,217.7 942,291.7 "/>
<polygon id="a31" fill="#C1C0C8" points="926,453 976.7,479 922.2,483.3 "/>
<polygon id="a30" fill="#C1C0C8" points="886,556 914,546.7 907,483.3 "/>
<polygon id="a29" fill="#90908F" points="779.5,556 833,591.7 796.9,591.7 "/>
<polygon id="a28" fill="#BFC0C1" points="966.7,492 917.3,503.9 936.8,542.4 "/>
<polygon id="a27" fill="#949492" points="886,499.8 833,510 804.4,562.6 "/>
<polygon id="a26" fill="#B3AFB9" points="822.9,610.6 864.1,547.4 885,602 "/>
<polygon id="a25" fill="#565756" points="763.5,643 780.9,598.6 751.4,612.1 "/>
<polygon id="a24" fill="#BFC0C1" points="880.4,121.8 879.1,180.2 932.9,169.8 "/>
<polygon id="a23" fill="#D7D9DA" points="890,474 911.1,474 900,453 "/>
<polygon id="a22" fill="#A1A2A1" points="922.2,51 886,110 926,92 "/>
<polygon id="a21" fill="#CCCBCB" points="746.1,567 763.5,591 707,637 "/>
<polygon id="a20" fill="#BEBDC2" points="599,589.6 533.4,546.7 539.4,598.6 "/>
<polygon id="a19" fill="#BFC0C1" points="618.1,598.6 675,651.1 686.9,609.6 "/>
<polygon id="a18" fill="#565756" points="575.2,670.6 618.1,631.6 631.3,655.6 "/>
<polygon id="a17" fill="#D7D9DA" points="471.7,492 444.4,499.8 432.9,567 "/>
<polygon id="a16" fill="#969591" points="364.9,531.2 423.9,531.2 380.9,556 "/>
<polygon id="a15" fill="#CCCBCB" points="476,519.7 432.9,598.6 464.7,579 "/>
<polygon id="a14" fill="#B2B2B2" points="471.7,624.8 506.9,614 500.9,562.6 "/>
<polygon id="a13" fill="#565756" points="576,626 544.5,643 506.9,637 "/>
<polygon id="a12" fill="#716F70" points="306,465.2 364.9,434.7 313,424 "/>
<polygon id="a11" fill="#D8DADB" points="338.7,360 338.7,407.8 376,407.8 "/>
<polygon id="a10" fill="#8A8B86" points="319,411 286,372.8 300,344.5 "/>
<polygon id="a9" fill="#DEDEDE" points="319,479 360,501.5 381.5,446.4 "/>
<polygon id="a8" fill="#CBC5C7" points="407,519.7 432.9,483.3 368.9,512 "/>
<polygon id="a7" fill="#F0F0F2" points="496,-13 471.7,38.6 533.4,-23 "/>
<polygon id="a6" fill="#908C87" points="434,19 407,58.2 458.8,35.5 "/>
<polygon id="a5" fill="#D30374" points="458.8,55 500.9,53 521.6,7.8 "/>
<polygon id="a4" fill="#A84593" points="611.7,26.1 584.5,7.8 603.7,0 "/>
<polygon id="a3" fill="#E72887" points="631.3,-50.3 603.7,-11 661.7,-13 "/>
<polygon id="a2" fill="#D30374" points="636.5,5 671.5,7.8 692.8,-20.5 "/>
<polygon id="a1" fill="#A84593" points="349,26.1 349,104.5 380.8,42.7 "/>
</svg>
